<?xml version="1.0" encoding="UTF-8" standalone="no"?>
<!-- Created with Inkscape (http://www.inkscape.org/) -->

<svg
   width="26.469849mm"
   height="26.466396mm"
   viewBox="0 0 26.469849 26.466396"
   version="1.1"
   id="svg1"
   xmlns="http://www.w3.org/2000/svg"
   xmlns:svg="http://www.w3.org/2000/svg">
  <defs
     id="defs1" />
  <g
     id="layer1"
     transform="translate(-18.211754,-14.109216)">
    <g
       id="g14">
      <circle
         style="fill:#f1f1f1;fill-opacity:1;stroke-width:0.021871"
         id="circle1"
         cx="31.439539"
         cy="27.338266"
         r="5.953125" />
      <circle
         style="fill:#3584e4;stroke-width:0.396875;stroke-dasharray:none"
         id="circle2"
         cx="31.439539"
         cy="27.338266"
         r="4.7624998" />
      <path
         style="opacity:0;fill:#000000;stroke-width:0.182704;stroke-dasharray:none"
         d="m 115.52984,153.15529 c -10.16519,-0.68251 -19.902495,-4.48073 -27.953711,-10.90388 -1.924475,-1.53532 -5.843774,-5.40228 -7.331029,-7.23314 -5.751464,-7.0802 -9.481644,-15.48884 -10.806645,-24.36053 -0.423382,-2.8348 -0.532173,-4.82948 -0.461704,-8.46529 0.103547,-5.342372 0.762297,-9.31919 2.360629,-14.250913 4.593965,-14.174879 15.288425,-25.560586 29.14983,-31.033961 4.16298,-1.64381 7.91313,-2.590246 12.72838,-3.212294 2.66846,-0.34472 8.8977,-0.310912 11.69306,0.06346 13.69568,1.834218 25.45341,8.596112 33.64842,19.351283 14.28318,18.745297 13.46521,44.989125 -1.95907,62.855245 -10.1978,11.81223 -25.53702,18.23281 -41.06816,17.19002 z m 5.63818,-27.40124 c 5.82826,-0.6358 11.17472,-3.45478 14.84428,-7.82682 7.51083,-8.94865 7.09162,-21.911336 -0.97876,-30.265006 -3.52385,-3.647544 -7.96782,-5.922795 -13.00288,-6.657298 -1.67368,-0.244151 -4.74837,-0.244353 -6.42428,-4.21e-4 -13.92006,2.026084 -22.598781,16.11301 -18.15329,29.465655 3.33569,10.0192 13.27213,16.42307 23.71493,15.28389 z"
         id="path4"
         transform="scale(0.26458333)" />
      <path
         style="opacity:0;fill:#000000;stroke-width:0.182704;stroke-dasharray:none"
         d="m 115.52984,153.15529 c -10.16519,-0.68251 -19.902495,-4.48073 -27.953711,-10.90388 -1.924475,-1.53532 -5.843774,-5.40228 -7.331029,-7.23314 -5.751464,-7.0802 -9.481644,-15.48884 -10.806645,-24.36053 -0.423382,-2.8348 -0.532173,-4.82948 -0.461704,-8.46529 0.103547,-5.342372 0.762297,-9.31919 2.360629,-14.250913 4.593965,-14.174879 15.288425,-25.560586 29.14983,-31.033961 4.16298,-1.64381 7.91313,-2.590246 12.72838,-3.212294 2.66846,-0.34472 8.8977,-0.310912 11.69306,0.06346 13.69568,1.834218 25.45341,8.596112 33.64842,19.351283 14.28318,18.745297 13.46521,44.989125 -1.95907,62.855245 -10.1978,11.81223 -25.53702,18.23281 -41.06816,17.19002 z m 5.63818,-27.40124 c 5.82826,-0.6358 11.17472,-3.45478 14.84428,-7.82682 7.51083,-8.94865 7.09162,-21.911336 -0.97876,-30.265006 -3.52385,-3.647544 -7.96782,-5.922795 -13.00288,-6.657298 -1.67368,-0.244151 -4.74837,-0.244353 -6.42428,-4.21e-4 -13.92006,2.026084 -22.598781,16.11301 -18.15329,29.465655 3.33569,10.0192 13.27213,16.42307 23.71493,15.28389 z"
         id="path5"
         transform="scale(0.26458333)" />
      <path
         id="path8"
         style="fill:#ea4335;fill-opacity:1;stroke:none;stroke-width:0.396875;stroke-linecap:butt;stroke-linejoin:miter;stroke-opacity:1"
         d="M 31.439425,14.109216 A 13.229167,13.229167 0 0 0 20.3755,20.098515 l 5.909717,10.235551 0.0052,-0.0093 A 5.953125,5.953125 0 0 1 25.4863,27.338383 5.953125,5.953125 0 0 1 31.439425,21.385258 H 43.253174 A 13.229167,13.229167 0 0 0 31.439425,14.109216 Z" />
      <path
         id="path9"
         style="fill:#34a853;fill-opacity:1;stroke:none;stroke-width:0.396875;stroke-linecap:butt;stroke-linejoin:miter;stroke-opacity:1"
         d="m 19.983989,33.972022 a 13.229167,13.229167 0 0 0 10.718848,6.586991 l 5.909388,-10.235741 -0.01065,1.47e-4 A 5.953125,5.953125 0 0 1 34.41735,32.512996 5.953125,5.953125 0 0 1 26.28523,30.334001 L 20.378352,20.102994 a 13.229167,13.229167 0 0 0 -0.394363,13.869028 z" />
      <path
         id="path10"
         style="fill:#ffb900;fill-opacity:1;stroke:none;stroke-width:0.396875;stroke-linecap:butt;stroke-linejoin:miter;stroke-opacity:1"
         d="m 42.913401,33.961317 a 13.229167,13.229167 0 0 0 0.345078,-12.57629 l -11.819106,1.91e-4 0.0055,0.0091 a 5.953125,5.953125 0 0 1 2.988341,0.796806 5.953125,5.953125 0 0 1 2.178995,8.13212 l -5.906873,10.23101 a 13.229167,13.229167 0 0 0 12.208112,-6.592986 z" />
      <path
         id="path12"
         style="display:inline;opacity:1;mix-blend-mode:multiply;fill:#f1f1f1;fill-opacity:1;stroke:none;stroke-width:0.396875;stroke-linecap:butt;stroke-linejoin:miter;stroke-opacity:1"
         d="m 43.230953,21.385258 -11.785844,0.0093 a 5.953125,5.953125 0 0 1 2.987931,0.796334 5.953125,5.953125 0 0 1 1.449524,1.175122 l 7.349422,-1.975074 z" />
      <path
         id="path13"
         style="display:inline;opacity:1;mix-blend-mode:multiply;fill:#f1f1f1;fill-opacity:1;stroke:none;stroke-width:0.396875;stroke-linecap:butt;stroke-linejoin:miter;stroke-opacity:1"
         d="m 20.389462,20.122238 5.900976,10.20219 a 5.953125,5.953125 0 0 1 -0.80432,-2.985791 5.953125,5.953125 0 0 1 0.292924,-1.842885 l -5.385176,-5.377249 z" />
      <path
         id="path14"
         style="display:inline;opacity:1;mix-blend-mode:multiply;fill:#f1f1f1;fill-opacity:1;stroke:none;stroke-width:0.396875;stroke-linecap:butt;stroke-linejoin:miter;stroke-opacity:1"
         d="m 30.7164,40.53506 5.884868,-10.21149 a 5.953125,5.953125 0 0 1 -2.183611,2.189457 5.953125,5.953125 0 0 1 -1.742447,0.667762 l -1.964246,7.352324 z" />
    </g>
  </g>
</svg>
